<svg width="25" height="37" viewBox="0 0 25 37" fill="none" xmlns="http://www.w3.org/2000/svg">
<path d="M24.9979 28.6572C24.9979 28.6461 24.9991 28.635 24.9991 28.6234C24.9991 28.6181 24.9975 28.6131 24.9975 28.6078L24.9699 20.9858C24.9699 19.3797 23.7121 18.0724 22.1661 18.0724C21.5708 18.0724 21.0297 18.2389 20.5858 18.5287C20.3612 17.1802 19.2467 16.1836 17.8619 16.1836C17.2523 16.1836 16.6955 16.3786 16.2428 16.7095C15.9017 15.5349 14.8588 14.7016 13.5908 14.7016C13.031 14.7016 12.5161 14.8652 12.0846 15.1471V7.15792C12.0846 5.56338 10.8665 4.31421 9.31119 4.31421C7.75843 4.31421 6.54246 5.56338 6.54246 7.15792V19.8644C5.83885 18.7763 5.15851 18.0032 5.11451 17.9529C4.05042 16.7367 2.72614 16.4717 1.3845 17.2053C0.032287 17.9488 -0.39927 19.6192 0.402073 21.0089L0.46046 21.109L0.549733 21.1815C0.573426 21.2009 2.92118 23.1487 3.44878 26.7359C3.6781 28.2715 4.07116 30.3329 4.66518 31.8232C4.66518 31.824 4.66518 31.8245 4.6656 31.8253C5.3506 33.7578 7.50542 37 14.2415 37H15.7274C21.3093 37 24.7199 34.0998 24.975 29.2157C24.9894 29.1629 25.0004 29.1085 25 29.0516L24.9979 28.6572ZM15.7266 35.7628H14.2407C10.0127 35.7628 7.10856 34.3418 6.00174 31.756C5.99751 31.7461 5.99582 31.7354 5.99116 31.7255C5.95774 31.6534 5.92516 31.5689 5.89258 31.4898C5.8837 31.4663 5.8727 31.4449 5.86466 31.4214C5.86339 31.4173 5.86085 31.4144 5.85958 31.4107C5.41829 30.3144 5.0117 28.6164 4.70453 26.559C4.16381 22.8816 1.96837 20.7624 1.46066 20.3161C1.06379 19.5388 1.2893 18.6774 2.00645 18.283C2.50866 18.009 3.27616 17.7592 4.15112 18.7586C4.16804 18.7776 5.81854 20.652 6.54203 22.591V23.9123C6.54203 24.2536 6.82593 24.5305 7.17667 24.5305C7.52742 24.5305 7.81132 24.2536 7.81132 23.9123V7.15792C7.81132 6.24134 8.45612 5.55061 9.31077 5.55061C10.1684 5.55061 10.8149 6.24175 10.8149 7.15792V17.5494V21.121V22.5206C10.8149 22.8618 11.0988 23.1388 11.4495 23.1388C11.8003 23.1388 12.0842 22.8618 12.0842 22.5206V21.121V17.5494C12.0842 16.6159 12.718 15.9384 13.5904 15.9384C14.4459 15.9384 15.0915 16.6312 15.0915 17.5494V19.0315V21.1206V22.5202C15.0915 22.8614 15.3758 23.1384 15.7262 23.1384C16.0765 23.1384 16.3608 22.8614 16.3608 22.5202V21.1206V19.0315C16.3608 18.1128 17.0056 17.42 17.8615 17.42C18.7158 17.42 19.3597 18.1128 19.3597 19.0315V20.8576V21.121V22.8536C19.3597 23.1948 19.644 23.4718 19.9943 23.4718C20.3447 23.4718 20.629 23.1948 20.629 22.8536V21.121V20.8576C20.629 19.9604 21.2751 19.3092 22.1657 19.3092C23.0119 19.3092 23.7002 20.0614 23.7002 20.9878L23.7282 28.6737C23.6985 35.0696 18.1264 35.7628 15.7266 35.7628Z" fill="#0A014F"/>
<path d="M16.1051 2.39408C16.2253 2.39408 16.3463 2.36111 16.4538 2.29187L17.2733 1.76599V12.7728C17.2733 13.1145 17.5576 13.391 17.908 13.391C18.2583 13.391 18.5426 13.1145 18.5426 12.7728V1.7664L19.36 2.29146C19.4679 2.36069 19.5889 2.39366 19.7091 2.39366C19.9147 2.39366 20.1174 2.29599 20.2392 2.11589C20.4321 1.8311 20.3518 1.44741 20.059 1.25948L18.2629 0.105506L18.2625 0.105094H18.2621C18.2604 0.10427 18.2591 0.103445 18.2579 0.102621L18.2574 0.102209C18.2553 0.100972 18.2528 0.100148 18.2507 0.0989119C18.2354 0.0894328 18.2185 0.0820145 18.2024 0.0737718C18.1859 0.0651171 18.1703 0.0552258 18.1529 0.0482195C18.1512 0.0473953 18.1491 0.0469831 18.1474 0.0461588C18.1297 0.0391526 18.111 0.0354434 18.0929 0.0296735C18.0717 0.0234916 18.051 0.0160733 18.0298 0.011952C18.0074 0.00783063 17.9854 0.00700628 17.963 0.00494562C17.9456 0.00370923 17.9287 0.000412299 17.9118 0.000412299C17.9105 0.000412299 17.9092 0 17.908 0C17.9071 0 17.9063 0 17.905 0C17.8826 0 17.861 0.00370933 17.8386 0.00618213C17.8216 0.00783066 17.8043 0.00824279 17.7874 0.0115399C17.7848 0.011952 17.7823 0.0115398 17.7802 0.011952C17.7793 0.011952 17.7785 0.012364 17.7776 0.0127762C17.7527 0.0177217 17.7294 0.0263765 17.7049 0.0342071C17.6934 0.0379162 17.6812 0.0403891 17.6698 0.0445104C17.6668 0.0457468 17.6643 0.046571 17.6613 0.0473953C17.6545 0.0498681 17.6494 0.0544015 17.6427 0.0568743C17.6114 0.0708868 17.5809 0.0861357 17.5517 0.105506L15.7552 1.25865C15.4625 1.44658 15.3817 1.82987 15.5746 2.11506C15.6973 2.2964 15.8991 2.39408 16.1051 2.39408Z" fill="#0A014F"/>
</svg>
