<svg width="26" height="26" viewBox="0 0 26 26" fill="none" xmlns="http://www.w3.org/2000/svg">
<path d="M16.25 16.7917C16.2137 16.7423 16.1679 16.7008 16.1152 16.6696C16.0625 16.6384 16.0041 16.6181 15.9434 16.61C15.8827 16.6019 15.821 16.6062 15.762 16.6225C15.703 16.6388 15.6479 16.6669 15.6 16.705C15.1129 16.996 14.5619 17.1629 13.9952 17.1913C13.4286 17.2196 12.8636 17.1084 12.35 16.8675C11.8871 16.6054 11.4933 16.2368 11.2013 15.7922C10.9093 15.3475 10.7274 14.8397 10.6708 14.3108H14.885C15.0085 14.3108 15.127 14.2617 15.2144 14.1744C15.3017 14.087 15.3508 13.9685 15.3508 13.845C15.3508 13.7214 15.3017 13.603 15.2144 13.5156C15.127 13.4282 15.0085 13.3792 14.885 13.3792H10.5516V12.5775H14.885C15.0085 12.5775 15.127 12.5284 15.2144 12.4411C15.3017 12.3537 15.3508 12.2352 15.3508 12.1117C15.3508 11.9881 15.3017 11.8696 15.2144 11.7823C15.127 11.6949 15.0085 11.6458 14.885 11.6458H10.6058C10.7013 11.1158 10.9156 10.6143 11.2327 10.179C11.5498 9.74367 11.9614 9.38588 12.4366 9.13249C12.8738 8.88263 13.3686 8.75119 13.8721 8.75119C14.3756 8.75119 14.8703 8.88263 15.3075 9.13249C15.4097 9.20494 15.5364 9.23419 15.6601 9.21392C15.7838 9.19364 15.8945 9.12547 15.9683 9.02416C16.0053 8.97491 16.032 8.91864 16.0466 8.85879C16.0612 8.79893 16.0636 8.73673 16.0534 8.67594C16.0433 8.61516 16.0209 8.55707 15.9877 8.5052C15.9544 8.45332 15.911 8.40874 15.86 8.37416C15.2851 8.01849 14.626 7.82202 13.9503 7.80489C13.2745 7.78776 12.6063 7.95057 12.0141 8.27666C11.3801 8.60336 10.8344 9.07828 10.4232 9.66107C10.012 10.2439 9.74764 10.9173 9.65248 11.6242H8.77498C8.65143 11.6242 8.53294 11.6732 8.44558 11.7606C8.35822 11.848 8.30914 11.9664 8.30914 12.09C8.30914 12.2135 8.35822 12.332 8.44558 12.4194C8.53294 12.5067 8.65143 12.5558 8.77498 12.5558H9.54414V13.3575H8.77498C8.65143 13.3575 8.53294 13.4066 8.44558 13.4939C8.35822 13.5813 8.30914 13.6998 8.30914 13.8233C8.30914 13.9469 8.35822 14.0654 8.44558 14.1527C8.53294 14.2401 8.65143 14.2892 8.77498 14.2892H9.64164C9.69043 14.9905 9.91433 15.6683 10.2929 16.2607C10.6714 16.8531 11.1924 17.3411 11.8083 17.68C12.3873 17.9662 13.0259 18.111 13.6716 18.1025C14.5119 18.1215 15.3385 17.8875 16.0441 17.4308C16.1558 17.373 16.2402 17.2734 16.2787 17.1536C16.3173 17.0339 16.3069 16.9038 16.25 16.7917Z" fill="black" stroke="#0A014F" stroke-width="0.3" stroke-miterlimit="10"/>
<path d="M11.765 20.2908C11.7338 20.2594 11.6966 20.2344 11.6557 20.2174C11.6148 20.2004 11.5709 20.1916 11.5266 20.1916C11.4823 20.1916 11.4385 20.2004 11.3976 20.2174C11.3567 20.2344 11.3195 20.2594 11.2883 20.2908C11.2266 20.357 11.1923 20.4441 11.1923 20.5346C11.1923 20.625 11.2266 20.7122 11.2883 20.7783L12.1225 21.6125C10.1178 21.4482 8.23277 20.5918 6.79033 19.1901C5.34789 17.7883 4.43791 15.9285 4.21636 13.9294C3.9948 11.9303 4.47547 9.9164 5.57598 8.23283C6.67648 6.54926 8.3283 5.30088 10.2483 4.70166C10.3242 4.67891 10.3887 4.62831 10.4289 4.56001C10.4691 4.4917 10.482 4.41073 10.465 4.33333C10.4538 4.2908 10.4341 4.25098 10.4071 4.21628C10.3801 4.18158 10.3463 4.15273 10.3078 4.13146C10.2694 4.11019 10.227 4.09695 10.1832 4.09255C10.1395 4.08814 10.0953 4.09266 10.0533 4.10583C8.0104 4.78996 6.26562 6.15712 5.11275 7.97711C3.95987 9.79711 3.46933 11.9588 3.72371 14.0981C3.97809 16.2374 4.96186 18.2238 6.50937 19.7227C8.05688 21.2216 10.0736 22.1415 12.22 22.3275L11.31 23.2483C11.2781 23.2768 11.2528 23.312 11.236 23.3513C11.2191 23.3906 11.2111 23.4331 11.2125 23.4758C11.211 23.5199 11.2183 23.5639 11.2338 23.6052C11.2494 23.6465 11.2729 23.6843 11.3031 23.7165C11.3333 23.7487 11.3695 23.7746 11.4098 23.7928C11.45 23.811 11.4934 23.8211 11.5375 23.8225C11.5834 23.8236 11.6291 23.8155 11.6718 23.7988C11.7146 23.782 11.7536 23.7569 11.7866 23.725L13.2383 22.2733C13.2979 22.2167 13.3329 22.1389 13.3358 22.0567C13.3336 22.0066 13.3208 21.9576 13.2984 21.9129C13.276 21.8681 13.2445 21.8285 13.2058 21.7967L11.765 20.2908Z" fill="black" stroke="#0A014F" stroke-width="0.8" stroke-miterlimit="10"/>
<path d="M21.8942 10.0425C21.3168 8.29924 20.2398 6.76407 18.7973 5.62773C17.3547 4.49138 15.61 3.80394 13.78 3.65082L14.69 2.74082C14.7366 2.68024 14.7618 2.60597 14.7618 2.52957C14.7618 2.45316 14.7366 2.3789 14.69 2.31832C14.6646 2.28208 14.6317 2.25164 14.5937 2.22898C14.5556 2.20633 14.5132 2.19197 14.4692 2.18686C14.4252 2.18174 14.3807 2.18598 14.3384 2.1993C14.2962 2.21262 14.2573 2.23472 14.2242 2.26415L12.74 3.69415C12.6866 3.75074 12.6525 3.82279 12.6425 3.89998C12.6432 3.95186 12.6552 4.00295 12.6777 4.04972C12.7001 4.09649 12.7325 4.13781 12.7725 4.17082L14.2025 5.62248C14.2327 5.65522 14.2696 5.68093 14.3108 5.69778C14.352 5.71463 14.3964 5.72221 14.4408 5.71998C14.4836 5.72135 14.5261 5.71333 14.5654 5.69648C14.6047 5.67964 14.6399 5.65438 14.6683 5.62248C14.7009 5.59303 14.7269 5.55709 14.7447 5.51697C14.7625 5.47686 14.7717 5.43345 14.7717 5.38957C14.7717 5.34568 14.7625 5.30228 14.7447 5.26216C14.7269 5.22205 14.7009 5.1861 14.6683 5.15665L13.845 4.33332C15.8391 4.50929 17.7108 5.37014 19.1421 6.76964C20.5734 8.16913 21.4762 10.021 21.6969 12.0106C21.9177 14.0002 21.4429 16.0049 20.3533 17.6841C19.2636 19.3634 17.6262 20.6136 15.7192 21.2225C15.637 21.2426 15.5655 21.2929 15.5188 21.3635C15.4722 21.434 15.4539 21.5196 15.4676 21.603C15.4813 21.6865 15.5259 21.7617 15.5926 21.8137C15.6594 21.8656 15.7433 21.8905 15.8275 21.8833H15.9358C17.1047 21.4973 18.1861 20.8848 19.1182 20.0808C20.0503 19.2767 20.8148 18.2969 21.3681 17.1973C21.9215 16.0977 22.2527 14.8999 22.343 13.6722C22.4332 12.4446 22.2807 11.2112 21.8942 10.0425Z" fill="black" stroke="#0A014F" stroke-width="0.8" stroke-miterlimit="10"/>
</svg>
