<svg width="109" height="83" viewBox="0 0 109 83" fill="none" xmlns="http://www.w3.org/2000/svg">
<path d="M107.213 9.04529L2.10609 0.0110255C1.74403 -0.0288774 1.3786 0.0400326 1.05298 0.209587C0.727355 0.379142 0.455187 0.642241 0.268748 0.967759C0.0823088 1.29328 -0.0106008 1.66758 0.000961605 2.04637C0.012524 2.42515 0.128078 2.79255 0.333994 3.10509L10.3283 17.3061C10.6194 17.7165 10.8299 18.1826 10.9476 18.6778C11.0653 19.173 11.088 19.6875 11.0143 20.1919L7.47008 49.2483C7.0604 50.3491 8.62291 51.787 9.26126 50.8152L19.1317 31.4575C20.0705 30.1692 21.3732 29.219 22.857 28.7402L88.8826 15.0351C89.0682 14.9985 89.2596 15.0091 89.4404 15.0661C89.6212 15.1231 89.7862 15.2247 89.9211 15.3623C90.0492 15.5031 90.1411 15.6753 90.1882 15.8629C90.2353 16.0505 90.236 16.2474 90.1904 16.4354C90.1448 16.6234 90.0542 16.7963 89.9272 16.9382C89.8002 17.08 89.6407 17.1861 89.4637 17.2466L27.0301 37.9034C25.6192 38.4863 24.3666 39.4191 23.381 40.6206L11.424 54.9605C10.738 56.4579 11.424 57.6777 13.0437 57.0132L26.2583 52.9572C26.7237 52.7744 27.2393 52.7882 27.6951 52.9957C28.1508 53.2032 28.5106 53.5881 28.6974 54.0679L38.7965 81.7757C38.9151 82.0736 39.1016 82.3369 39.3399 82.5428C39.5783 82.7487 39.8613 82.891 40.1644 82.9575C40.4675 83.0239 40.7816 83.0124 41.0795 82.924C41.3773 82.8356 41.65 82.6729 41.8739 82.4501L108.347 12.4071C108.598 12.1427 108.772 11.8105 108.849 11.4483C108.927 11.086 108.906 10.7083 108.788 10.358C108.67 10.0078 108.46 9.69909 108.181 9.46702C107.903 9.23495 107.568 9.08882 107.213 9.04529Z" fill="#4159CE"/>
</svg>
