<svg width="26" height="26" viewBox="0 0 26 26" fill="none" xmlns="http://www.w3.org/2000/svg">
<g clip-path="url(#clip0_0_54)">
<path d="M22.76 21.6014L17.5159 16.3573C18.8438 14.7321 19.4963 12.6588 19.3386 10.566C19.1808 8.47329 18.2248 6.5212 16.6683 5.11348C15.1118 3.70575 13.0737 2.95007 10.9757 3.0027C8.87768 3.05533 6.88012 3.91225 5.39612 5.39624C3.91212 6.88024 3.05521 8.87781 3.00258 10.9758C2.94995 13.0739 3.70563 15.1119 5.11336 16.6684C6.52108 18.225 8.47317 19.181 10.5659 19.3387C12.6587 19.4965 14.732 18.8439 16.3572 17.516L21.6013 22.7601C21.755 22.9138 21.9634 23.0001 22.1807 23.0001C22.398 23.0001 22.6064 22.9138 22.76 22.7601C22.9137 22.6065 23 22.3981 23 22.1808C23 21.9635 22.9137 21.7551 22.76 21.6014ZM6.52815 15.8079C5.61015 14.8902 4.98492 13.7208 4.73154 12.4477C4.47816 11.1747 4.60801 9.85502 5.10466 8.65573C5.60132 7.45645 6.44247 6.43139 7.52174 5.71018C8.60101 4.98898 9.86991 4.60404 11.168 4.60404C12.466 4.60404 13.7349 4.98898 14.8142 5.71018C15.8935 6.43139 16.7346 7.45645 17.2313 8.65573C17.7279 9.85502 17.8578 11.1747 17.6044 12.4477C17.351 13.7208 16.7258 14.8902 15.8078 15.8079C14.5927 17.0377 12.9391 17.7348 11.2103 17.746C9.48157 17.7572 7.81906 17.0817 6.58808 15.8678L6.52815 15.8079Z" fill="#0A014F" stroke="#0A014F" stroke-width="0.25" stroke-miterlimit="10"/>
</g>
<defs>
<clipPath id="clip0_0_54">
<rect width="26" height="26" fill="white"/>
</clipPath>
</defs>
</svg>
