<svg width="72" height="49" viewBox="0 0 72 49" fill="none" xmlns="http://www.w3.org/2000/svg">
<rect width="72" height="49" fill="white"/>
<path d="M39.2499 27.7917C39.2137 27.7423 39.1678 27.7008 39.1152 27.6696C39.0625 27.6384 39.004 27.6181 38.9434 27.61C38.8827 27.6019 38.821 27.6062 38.762 27.6225C38.7029 27.6388 38.6478 27.6669 38.5999 27.705C38.1128 27.996 37.5618 28.1629 36.9952 28.1913C36.4285 28.2196 35.8636 28.1084 35.3499 27.8675C34.887 27.6054 34.4933 27.2368 34.2012 26.7922C33.9092 26.3475 33.7274 25.8397 33.6707 25.3108H37.8849C38.0085 25.3108 38.1269 25.2617 38.2143 25.1744C38.3017 25.087 38.3507 24.9685 38.3507 24.845C38.3507 24.7214 38.3017 24.603 38.2143 24.5156C38.1269 24.4282 38.0085 24.3792 37.8849 24.3792H33.5516V23.5775H37.8849C38.0085 23.5775 38.1269 23.5284 38.2143 23.4411C38.3017 23.3537 38.3507 23.2352 38.3507 23.1117C38.3507 22.9881 38.3017 22.8696 38.2143 22.7823C38.1269 22.6949 38.0085 22.6458 37.8849 22.6458H33.6057C33.7012 22.1158 33.9155 21.6143 34.2326 21.179C34.5497 20.7437 34.9614 20.3859 35.4366 20.1325C35.8737 19.8826 36.3685 19.7512 36.872 19.7512C37.3755 19.7512 37.8703 19.8826 38.3074 20.1325C38.4097 20.2049 38.5364 20.2342 38.6601 20.2139C38.7837 20.1936 38.8945 20.1255 38.9682 20.0242C39.0053 19.9749 39.0319 19.9186 39.0465 19.8588C39.0612 19.7989 39.0635 19.7367 39.0534 19.6759C39.0432 19.6152 39.0209 19.5571 38.9876 19.5052C38.9544 19.4533 38.9109 19.4087 38.8599 19.3742C38.2851 19.0185 37.626 18.822 36.9502 18.8049C36.2744 18.7878 35.6062 18.9506 35.0141 19.2767C34.3801 19.6034 33.8343 20.0783 33.4231 20.6611C33.012 21.2439 32.7476 21.9173 32.6524 22.6242H31.7749C31.6514 22.6242 31.5329 22.6732 31.4455 22.7606C31.3582 22.848 31.3091 22.9664 31.3091 23.09C31.3091 23.2135 31.3582 23.332 31.4455 23.4194C31.5329 23.5067 31.6514 23.5558 31.7749 23.5558H32.5441V24.3575H31.7749C31.6514 24.3575 31.5329 24.4066 31.4455 24.4939C31.3582 24.5813 31.3091 24.6998 31.3091 24.8233C31.3091 24.9469 31.3582 25.0654 31.4455 25.1527C31.5329 25.2401 31.6514 25.2892 31.7749 25.2892H32.6416C32.6904 25.9905 32.9143 26.6683 33.2928 27.2607C33.6713 27.8531 34.1924 28.3411 34.8082 28.68C35.3872 28.9662 36.0258 29.111 36.6716 29.1025C37.5119 29.1215 38.3385 28.8875 39.0441 28.4308C39.1558 28.373 39.2401 28.2734 39.2786 28.1536C39.3172 28.0339 39.3069 27.9038 39.2499 27.7917Z" fill="black" stroke="#0A014F" stroke-width="0.3" stroke-miterlimit="10"/>
<path d="M34.765 31.2908C34.7338 31.2594 34.6967 31.2344 34.6558 31.2174C34.6149 31.2004 34.571 31.1916 34.5267 31.1916C34.4824 31.1916 34.4385 31.2004 34.3976 31.2174C34.3567 31.2344 34.3196 31.2594 34.2884 31.2908C34.2267 31.357 34.1924 31.4441 34.1924 31.5346C34.1924 31.625 34.2267 31.7122 34.2884 31.7783L35.1225 32.6125C33.1179 32.4482 31.2328 31.5918 29.7904 30.1901C28.348 28.7883 27.438 26.9285 27.2164 24.9294C26.9949 22.9303 27.4755 20.9164 28.576 19.2328C29.6765 17.5493 31.3284 16.3009 33.2484 15.7017C33.3243 15.6789 33.3888 15.6283 33.429 15.56C33.4692 15.4917 33.482 15.4107 33.465 15.3333C33.4539 15.2908 33.4342 15.251 33.4072 15.2163C33.3802 15.1816 33.3464 15.1527 33.3079 15.1315C33.2694 15.1102 33.227 15.097 33.1833 15.0925C33.1395 15.0881 33.0953 15.0927 33.0534 15.1058C31.0105 15.79 29.2657 17.1571 28.1128 18.9771C26.9599 20.7971 26.4694 22.9588 26.7238 25.0981C26.9782 27.2374 27.9619 29.2238 29.5094 30.7227C31.0569 32.2216 33.0737 33.1415 35.22 33.3275L34.31 34.2483C34.2781 34.2768 34.2529 34.312 34.236 34.3513C34.2192 34.3906 34.2112 34.4331 34.2125 34.4758C34.2111 34.5199 34.2184 34.5639 34.2339 34.6052C34.2495 34.6465 34.273 34.6843 34.3032 34.7165C34.3334 34.7487 34.3696 34.7746 34.4098 34.7928C34.45 34.811 34.4934 34.8211 34.5375 34.8225C34.5835 34.8236 34.6291 34.8155 34.6719 34.7988C34.7147 34.782 34.7537 34.7569 34.7867 34.725L36.2384 33.2733C36.298 33.2167 36.333 33.1389 36.3359 33.0567C36.3336 33.0066 36.3209 32.9576 36.2985 32.9129C36.2761 32.8681 36.2445 32.8285 36.2059 32.7967L34.765 31.2908Z" fill="black" stroke="#0A014F" stroke-width="0.8" stroke-miterlimit="10"/>
<path d="M44.8942 21.0425C44.3168 19.2992 43.2399 17.7641 41.7973 16.6277C40.3547 15.4914 38.6101 14.8039 36.7801 14.6508L37.6901 13.7408C37.7366 13.6802 37.7619 13.606 37.7619 13.5296C37.7619 13.4532 37.7366 13.3789 37.6901 13.3183C37.6646 13.2821 37.6318 13.2516 37.5937 13.229C37.5557 13.2063 37.5133 13.192 37.4693 13.1869C37.4253 13.1817 37.3807 13.186 37.3385 13.1993C37.2963 13.2126 37.2573 13.2347 37.2242 13.2641L35.7401 14.6942C35.6866 14.7507 35.6525 14.8228 35.6426 14.9C35.6433 14.9519 35.6553 15.0029 35.6777 15.0497C35.7002 15.0965 35.7326 15.1378 35.7726 15.1708L37.2026 16.6225C37.2327 16.6552 37.2697 16.6809 37.3109 16.6978C37.3521 16.7146 37.3965 16.7222 37.4409 16.72C37.4837 16.7214 37.5262 16.7133 37.5655 16.6965C37.6048 16.6796 37.6399 16.6544 37.6684 16.6225C37.7009 16.593 37.727 16.5571 37.7448 16.517C37.7625 16.4769 37.7717 16.4335 37.7717 16.3896C37.7717 16.3457 37.7625 16.3023 37.7448 16.2622C37.727 16.222 37.7009 16.1861 37.6684 16.1567L36.8451 15.3333C38.8391 15.5093 40.7108 16.3701 42.1422 17.7696C43.5735 19.1691 44.4762 21.021 44.697 23.0106C44.9178 25.0002 44.443 27.0049 43.3533 28.6841C42.2636 30.3634 40.6262 31.6136 38.7192 32.2225C38.6371 32.2426 38.5656 32.2929 38.5189 32.3635C38.4723 32.434 38.454 32.5196 38.4676 32.603C38.4813 32.6865 38.526 32.7617 38.5927 32.8137C38.6594 32.8656 38.7433 32.8905 38.8276 32.8833H38.9359C40.1048 32.4973 41.1862 31.8848 42.1183 31.0808C43.0503 30.2767 43.8149 29.2969 44.3682 28.1973C44.9215 27.0977 45.2528 25.8999 45.343 24.6722C45.4333 23.4446 45.2808 22.2112 44.8942 21.0425Z" fill="black" stroke="#0A014F" stroke-width="0.8" stroke-miterlimit="10"/>
</svg>
