<svg width="30" height="30" viewBox="0 0 30 30" fill="none" xmlns="http://www.w3.org/2000/svg">
<g clip-path="url(#clip0_0_37)">
<path d="M26.976 23.3791C26.5272 24.4272 25.9959 25.392 25.3803 26.279C24.5413 27.4882 23.8542 28.3252 23.3248 28.79C22.504 29.553 21.6247 29.9437 20.683 29.9659C20.007 29.9659 19.1917 29.7715 18.2427 29.3771C17.2906 28.9845 16.4156 28.79 15.6156 28.79C14.7765 28.79 13.8766 28.9845 12.914 29.3771C11.95 29.7715 11.1734 29.977 10.5797 29.9974C9.67664 30.0363 8.77657 29.6345 7.87813 28.79C7.30471 28.2845 6.58746 27.4179 5.72824 26.1901C4.80635 24.879 4.04844 23.3587 3.45468 21.6254C2.81877 19.7533 2.5 17.9404 2.5 16.1852C2.5 14.1747 2.9298 12.4407 3.79067 10.9876C4.46724 9.82043 5.36732 8.89972 6.49384 8.22381C7.62037 7.54791 8.83757 7.20347 10.1484 7.18144C10.8656 7.18144 11.8062 7.40569 12.975 7.84642C14.1406 8.28863 14.889 8.51288 15.2171 8.51288C15.4624 8.51288 16.2938 8.25066 17.7032 7.7279C19.036 7.2431 20.1609 7.04237 21.0824 7.12144C23.5794 7.32514 25.4554 8.32011 26.7031 10.1126C24.4698 11.4804 23.3651 13.3961 23.3871 15.8536C23.4072 17.7678 24.0942 19.3607 25.4445 20.6255C26.0564 21.2125 26.7397 21.6662 27.5 21.9884C27.3351 22.4717 27.1611 22.9347 26.976 23.3791ZM21.2491 0.600156C21.2491 2.1005 20.7068 3.50136 19.6259 4.79799C18.3215 6.33943 16.7437 7.23014 15.0328 7.08959C15.011 6.90959 14.9984 6.72015 14.9984 6.52109C14.9984 5.08076 15.6187 3.53932 16.7203 2.27899C17.2703 1.64086 17.9697 1.11027 18.818 0.687004C19.6644 0.270054 20.465 0.039471 21.2179 -1.52588e-05C21.2399 0.200557 21.2491 0.401142 21.2491 0.600136V0.600156Z" fill="#0A014F"/>
</g>
<defs>
<clipPath id="clip0_0_37">
<rect width="30" height="30" fill="white"/>
</clipPath>
</defs>
</svg>
