<svg width="26" height="26" viewBox="0 0 26 26" fill="none" xmlns="http://www.w3.org/2000/svg">
<g clip-path="url(#clip0_0_84)">
<path d="M22.76 21.6014L17.5158 16.3573C18.8437 14.7321 19.4963 12.6588 19.3385 10.566C19.1808 8.47329 18.2248 6.5212 16.6682 5.11348C15.1117 3.70575 13.0737 2.95007 10.9757 3.0027C8.87762 3.05533 6.88006 3.91225 5.39606 5.39624C3.91206 6.88024 3.05514 8.87781 3.00251 10.9758C2.94988 13.0739 3.70557 15.1119 5.1133 16.6684C6.52102 18.225 8.47311 19.181 10.5659 19.3387C12.6586 19.4965 14.732 18.8439 16.3571 17.516L21.6013 22.7601C21.7549 22.9138 21.9633 23.0001 22.1806 23.0001C22.3979 23.0001 22.6063 22.9138 22.76 22.7601C22.9136 22.6065 22.9999 22.3981 22.9999 22.1808C22.9999 21.9635 22.9136 21.7551 22.76 21.6014ZM6.52809 15.8079C5.61009 14.8902 4.98486 13.7208 4.73148 12.4477C4.4781 11.1747 4.60795 9.85502 5.1046 8.65573C5.60126 7.45645 6.44241 6.43139 7.52168 5.71018C8.60095 4.98898 9.86985 4.60404 11.1679 4.60404C12.466 4.60404 13.7349 4.98898 14.8141 5.71018C15.8934 6.43139 16.7346 7.45645 17.2312 8.65573C17.7279 9.85502 17.8577 11.1747 17.6043 12.4477C17.351 13.7208 16.7257 14.8902 15.8077 15.8079C14.5926 17.0377 12.939 17.7348 11.2103 17.746C9.48151 17.7572 7.819 17.0817 6.58802 15.8678L6.52809 15.8079Z" fill="#4159CE" stroke="#4159CE" stroke-width="0.25" stroke-miterlimit="10"/>
</g>
<defs>
<clipPath id="clip0_0_84">
<rect width="26" height="26" fill="white"/>
</clipPath>
</defs>
</svg>
