<svg width="26" height="26" viewBox="0 0 26 26" fill="none" xmlns="http://www.w3.org/2000/svg">
<path d="M16.2499 16.7917C16.2137 16.7424 16.1678 16.7008 16.1152 16.6696C16.0625 16.6384 16.004 16.6182 15.9434 16.6101C15.8827 16.602 15.821 16.6062 15.762 16.6225C15.7029 16.6389 15.6478 16.6669 15.5999 16.705C15.1128 16.996 14.5618 17.163 13.9952 17.1913C13.4285 17.2196 12.8636 17.1085 12.3499 16.8675C11.887 16.6055 11.4933 16.2368 11.2012 15.7922C10.9092 15.3476 10.7274 14.8398 10.6707 14.3109H14.8849C15.0085 14.3109 15.1269 14.2618 15.2143 14.1744C15.3017 14.0871 15.3507 13.9686 15.3507 13.845C15.3507 13.7215 15.3017 13.603 15.2143 13.5156C15.1269 13.4283 15.0085 13.3792 14.8849 13.3792H10.5516V12.5775H14.8849C15.0085 12.5775 15.1269 12.5285 15.2143 12.4411C15.3017 12.3537 15.3507 12.2353 15.3507 12.1117C15.3507 11.9882 15.3017 11.8697 15.2143 11.7823C15.1269 11.6949 15.0085 11.6459 14.8849 11.6459H10.6057C10.7012 11.1158 10.9155 10.6143 11.2326 10.179C11.5497 9.74371 11.9614 9.38593 12.4366 9.13254C12.8737 8.88267 13.3685 8.75124 13.872 8.75124C14.3755 8.75124 14.8703 8.88267 15.3074 9.13254C15.4097 9.20499 15.5364 9.23424 15.6601 9.21396C15.7837 9.19369 15.8945 9.12551 15.9682 9.0242C16.0053 8.97495 16.0319 8.91869 16.0465 8.85883C16.0612 8.79898 16.0635 8.73677 16.0534 8.67599C16.0432 8.61521 16.0209 8.55712 15.9876 8.50524C15.9544 8.45337 15.9109 8.40879 15.8599 8.3742C15.2851 8.01853 14.626 7.82207 13.9502 7.80494C13.2744 7.7878 12.6062 7.95062 12.0141 8.2767C11.3801 8.6034 10.8343 9.07833 10.4231 9.66112C10.012 10.2439 9.74758 10.9173 9.65242 11.6242H8.77492C8.65137 11.6242 8.53288 11.6733 8.44552 11.7606C8.35816 11.848 8.30908 11.9665 8.30908 12.09C8.30908 12.2136 8.35816 12.3321 8.44552 12.4194C8.53288 12.5068 8.65137 12.5559 8.77492 12.5559H9.54408V13.3575H8.77492C8.65137 13.3575 8.53288 13.4066 8.44552 13.494C8.35816 13.5813 8.30908 13.6998 8.30908 13.8234C8.30908 13.9469 8.35816 14.0654 8.44552 14.1528C8.53288 14.2401 8.65137 14.2892 8.77492 14.2892H9.64158C9.69037 14.9905 9.91427 15.6684 10.2928 16.2607C10.6713 16.8531 11.1924 17.3411 11.8082 17.68C12.3872 17.9662 13.0258 18.111 13.6716 18.1025C14.5119 18.1215 15.3385 17.8875 16.0441 17.4309C16.1558 17.373 16.2401 17.2734 16.2786 17.1537C16.3172 17.034 16.3069 16.9038 16.2499 16.7917Z" fill="#4159CE" stroke="#4159CE" stroke-width="0.3" stroke-miterlimit="10"/>
<path d="M11.765 20.2909C11.7338 20.2594 11.6967 20.2345 11.6558 20.2174C11.6149 20.2004 11.571 20.1916 11.5267 20.1916C11.4824 20.1916 11.4385 20.2004 11.3976 20.2174C11.3567 20.2345 11.3196 20.2594 11.2884 20.2909C11.2267 20.357 11.1924 20.4441 11.1924 20.5346C11.1924 20.6251 11.2267 20.7122 11.2884 20.7784L12.1225 21.6125C10.1179 21.4483 8.23283 20.5919 6.79039 19.1901C5.34795 17.7884 4.43797 15.9286 4.21642 13.9295C3.99487 11.9304 4.47553 9.91643 5.57604 8.23286C6.67654 6.54929 8.32836 5.30092 10.2484 4.70169C10.3243 4.67894 10.3888 4.62835 10.429 4.56004C10.4692 4.49173 10.482 4.41076 10.465 4.33336C10.4539 4.29083 10.4342 4.25101 10.4072 4.21631C10.3802 4.18161 10.3464 4.15276 10.3079 4.13149C10.2694 4.11022 10.227 4.09698 10.1833 4.09258C10.1395 4.08817 10.0953 4.09269 10.0534 4.10586C8.01046 4.78999 6.26568 6.15715 5.11281 7.97714C3.95994 9.79714 3.46939 11.9588 3.72377 14.0981C3.97815 16.2375 4.96192 18.2238 6.50943 19.7227C8.05694 21.2216 10.0737 22.1415 12.22 22.3275L11.31 23.2484C11.2781 23.2768 11.2529 23.312 11.236 23.3513C11.2192 23.3906 11.2112 23.4331 11.2125 23.4759C11.2111 23.52 11.2184 23.5639 11.2339 23.6052C11.2495 23.6465 11.273 23.6844 11.3032 23.7166C11.3334 23.7487 11.3696 23.7747 11.4098 23.7929C11.45 23.811 11.4934 23.8211 11.5375 23.8225C11.5835 23.8236 11.6291 23.8155 11.6719 23.7988C11.7147 23.782 11.7537 23.757 11.7867 23.725L13.2384 22.2734C13.298 22.2167 13.333 22.1389 13.3359 22.0567C13.3336 22.0067 13.3209 21.9577 13.2985 21.9129C13.2761 21.8681 13.2445 21.8285 13.2059 21.7967L11.765 20.2909Z" fill="#4159CE" stroke="#4159CE" stroke-width="0.8" stroke-miterlimit="10"/>
<path d="M21.8942 10.0425C21.3168 8.2993 20.2399 6.76413 18.7973 5.62779C17.3547 4.49144 15.6101 3.804 13.7801 3.65088L14.6901 2.74088C14.7366 2.6803 14.7619 2.60603 14.7619 2.52963C14.7619 2.45322 14.7366 2.37896 14.6901 2.31838C14.6646 2.28214 14.6318 2.2517 14.5937 2.22904C14.5557 2.20639 14.5133 2.19203 14.4693 2.18692C14.4253 2.1818 14.3807 2.18604 14.3385 2.19937C14.2963 2.21269 14.2573 2.23478 14.2242 2.26421L12.7401 3.69421C12.6866 3.7508 12.6525 3.82286 12.6426 3.90004C12.6433 3.95192 12.6553 4.00301 12.6777 4.04978C12.7002 4.09655 12.7326 4.13787 12.7726 4.17088L14.2026 5.62254C14.2327 5.65528 14.2697 5.68099 14.3109 5.69784C14.3521 5.71469 14.3965 5.72227 14.4409 5.72004C14.4837 5.72141 14.5262 5.71339 14.5655 5.69654C14.6048 5.6797 14.6399 5.65444 14.6684 5.62254C14.7009 5.59309 14.727 5.55715 14.7448 5.51703C14.7625 5.47692 14.7717 5.43352 14.7717 5.38963C14.7717 5.34574 14.7625 5.30234 14.7448 5.26222C14.727 5.22211 14.7009 5.18616 14.6684 5.15671L13.8451 4.33338C15.8391 4.50935 17.7108 5.3702 19.1422 6.7697C20.5735 8.16919 21.4762 10.021 21.697 12.0106C21.9178 14.0002 21.443 16.0049 20.3533 17.6842C19.2636 19.3634 17.6262 20.6137 15.7192 21.2225C15.6371 21.2426 15.5656 21.293 15.5189 21.3635C15.4723 21.4341 15.454 21.5196 15.4676 21.6031C15.4813 21.6865 15.526 21.7618 15.5927 21.8137C15.6594 21.8657 15.7433 21.8906 15.8276 21.8834H15.9359C17.1048 21.4974 18.1862 20.8849 19.1183 20.0808C20.0503 19.2768 20.8149 18.297 21.3682 17.1974C21.9215 16.0978 22.2528 14.8999 22.343 13.6723C22.4333 12.4446 22.2808 11.2112 21.8942 10.0425Z" fill="#4159CE" stroke="#4159CE" stroke-width="0.8" stroke-miterlimit="10"/>
</svg>
