<svg width="26" height="26" viewBox="0 0 26 26" fill="none" xmlns="http://www.w3.org/2000/svg">
<path d="M13 12.38C10.4778 12.3843 8.04941 13.3369 6.19693 15.0486C4.34444 16.7603 3.20329 19.106 3.00001 21.62C2.98612 21.7972 3.00926 21.9753 3.06797 22.143C3.12668 22.3107 3.21967 22.4644 3.34102 22.5942C3.46237 22.724 3.60941 22.8271 3.7728 22.897C3.93618 22.9669 4.11232 23.0019 4.29001 23H21.71C21.8877 23.0019 22.0638 22.9669 22.2272 22.897C22.3906 22.8271 22.5377 22.724 22.659 22.5942C22.7804 22.4644 22.8733 22.3107 22.932 22.143C22.9908 21.9753 23.0139 21.7972 23 21.62C22.7967 19.106 21.6556 16.7603 19.8031 15.0486C17.9506 13.3369 15.5222 12.3843 13 12.38ZM21.71 21.75H4.29001C4.45687 19.5449 5.45061 17.4842 7.07223 15.9807C8.69384 14.4772 10.8236 13.6417 13.035 13.6417C15.2464 13.6417 17.3762 14.4772 18.9978 15.9807C20.6194 17.4842 21.6132 19.5449 21.78 21.75H21.71Z" fill="#4159CE" stroke="#4159CE" stroke-width="0.5" stroke-miterlimit="10"/>
<path d="M13.0001 11.12C13.8026 11.118 14.5866 10.8782 15.2529 10.4309C15.9193 9.9836 16.4381 9.34882 16.7439 8.60678C17.0496 7.86474 17.1286 7.04873 16.9708 6.26183C16.813 5.47492 16.4256 4.75244 15.8574 4.18563C15.2892 3.61883 14.5657 3.23315 13.7784 3.0773C12.9912 2.92145 12.1753 3.00244 11.4341 3.31002C10.6928 3.6176 10.0593 4.13799 9.6136 4.80543C9.16792 5.47288 8.93006 6.25744 8.93005 7.06C8.9327 8.1377 9.36267 9.17036 10.1257 9.93147C10.8886 10.6926 11.9224 11.12 13.0001 11.12ZM13.0001 4.25C13.5582 4.25001 14.1038 4.41565 14.5678 4.72596C15.0318 5.03627 15.3932 5.47729 15.6063 5.99316C15.8195 6.50903 15.8747 7.07655 15.7651 7.62385C15.6555 8.17115 15.3859 8.6736 14.9905 9.06758C14.5951 9.46157 14.0917 9.72935 13.5441 9.83703C12.9964 9.94471 12.429 9.88744 11.9139 9.67246C11.3988 9.45749 10.9591 9.09449 10.6504 8.62943C10.3418 8.16437 10.1781 7.61817 10.1801 7.06C10.1827 6.31383 10.481 5.59912 11.0095 5.07242C11.5381 4.54573 12.2539 4.25 13.0001 4.25Z" fill="#4159CE" stroke="#4159CE" stroke-width="0.5" stroke-miterlimit="10"/>
</svg>
