<svg width="26" height="26" viewBox="0 0 26 26" fill="none" xmlns="http://www.w3.org/2000/svg">
<path d="M13 12.38C10.4778 12.3843 8.04941 13.3369 6.19693 15.0486C4.34444 16.7603 3.20329 19.106 3.00001 21.62C2.98612 21.7972 3.00926 21.9753 3.06797 22.143C3.12668 22.3107 3.21967 22.4644 3.34102 22.5942C3.46237 22.724 3.60941 22.8271 3.7728 22.897C3.93618 22.9669 4.11232 23.0019 4.29001 23H21.71C21.8877 23.0019 22.0638 22.9669 22.2272 22.897C22.3906 22.8271 22.5377 22.724 22.659 22.5942C22.7804 22.4644 22.8733 22.3107 22.932 22.143C22.9908 21.9753 23.0139 21.7972 23 21.62C22.7967 19.106 21.6556 16.7603 19.8031 15.0486C17.9506 13.3369 15.5222 12.3843 13 12.38ZM21.71 21.75H4.29001C4.45687 19.5449 5.45061 17.4842 7.07223 15.9807C8.69384 14.4772 10.8236 13.6417 13.035 13.6417C15.2464 13.6417 17.3762 14.4772 18.9978 15.9807C20.6194 17.4842 21.6132 19.5449 21.78 21.75H21.71Z" fill="#4159CE" stroke="#4159CE" stroke-width="0.5" stroke-miterlimit="10"/>
<path d="M12.9999 11.12C13.8025 11.118 14.5865 10.8782 15.2528 10.4309C15.9192 9.98358 16.438 9.34881 16.7437 8.60677C17.0495 7.86473 17.1285 7.04871 16.9707 6.26181C16.8129 5.47491 16.4254 4.75242 15.8573 4.18562C15.2891 3.61882 14.5656 3.23313 13.7783 3.07729C12.991 2.92144 12.1752 3.00242 11.4339 3.31C10.6927 3.61759 10.0592 4.13797 9.61348 4.80542C9.1678 5.47286 8.92993 6.25742 8.92993 7.05999C8.93258 8.13769 9.36255 9.17034 10.1255 9.93145C10.8885 10.6926 11.9222 11.12 12.9999 11.12ZM12.9999 4.24999C13.5581 4.24999 14.1037 4.41564 14.5677 4.72595C15.0316 5.03626 15.3931 5.47727 15.6062 5.99314C15.8194 6.50902 15.8746 7.07654 15.765 7.62383C15.6554 8.17113 15.3858 8.67359 14.9904 9.06757C14.595 9.46155 14.0916 9.72934 13.5439 9.83702C12.9962 9.9447 12.4289 9.88742 11.9138 9.67245C11.3987 9.45748 10.959 9.09447 10.6503 8.62941C10.3417 8.16435 10.178 7.61815 10.1799 7.05999C10.1826 6.31381 10.4809 5.5991 11.0094 5.07241C11.538 4.54572 12.2538 4.24998 12.9999 4.24999Z" fill="#4159CE" stroke="#4159CE" stroke-width="0.5" stroke-miterlimit="10"/>
</svg>
