<svg width="26" height="26" viewBox="0 0 26 26" fill="none" xmlns="http://www.w3.org/2000/svg">
<g clip-path="url(#clip0_0_41)">
<path fill-rule="evenodd" clip-rule="evenodd" d="M17.1167 6.5L21.3417 3.03333C19.0667 1.08333 16.25 0 13.1083 0C8.01667 0 3.68333 2.81667 1.51667 7.04167V7.15C0.541667 8.88333 0 10.9417 0 13.1083C0 15.275 0.433333 17.3333 1.51667 19.175L1.625 19.2833C3.79167 23.2917 8.125 26.1083 13 26.1083C16.0333 26.1083 18.85 25.2417 21.0167 23.4L21.125 23.2917C23.4 21.45 25.025 18.85 25.675 15.8167C25.8917 14.95 26 13.975 26 13.1083C26 12.2417 25.8917 11.4833 25.7833 10.6167H20.3667H13.325V15.8167H20.2583C19.6083 17.55 18.4167 18.9583 16.9 19.825C15.7083 20.475 14.4083 20.8 13 20.8C9.75 20.8 7.04167 18.85 5.85 16.0333C5.85 16.0333 5.30833 14.3 5.30833 13.2167C5.30833 11.8083 5.63333 11.1583 5.85 10.5083C6.93333 7.475 9.75 5.30833 13.1083 5.30833C14.625 5.30833 15.925 5.74167 17.1167 6.5Z" fill="#0A014F"/>
</g>
<defs>
<clipPath id="clip0_0_41">
<rect width="26" height="26" fill="white"/>
</clipPath>
</defs>
</svg>
